# xmcd
#
# Track frame offsets:
#	150
#	5989
#	18139
#	31776
#	51343
#	66312
#	87210
#	105033
#	121298
#	137480
#	152870
#	171211
#	184127
#
# Disc length: 2632 seconds
# Revision: 2
# Processed by: cddbd v1.5.2PL0 Copyright (c) Steve Scherf et al.
# Submitted via: dBpowerAMP V12.0
#
DISCID=a00a460d
DTITLE=Bill Chambers - Drifting South
DYEAR=2009
DGENRE=Country
TTITLE0=Diesel and Driftwood
TTITLE1=Tasmania
TTITLE2=Tail Lights
TTITLE3=Magnolia Wind
TTITLE4=Southern Rain
TTITLE5=Listening to Neil Young
TTITLE6=Dashboard Jesus
TTITLE7=Deckhands Daoughter
TTITLE8=Letter to Fred
TTITLE9=Just Dreaming
TTITLE10=Drifting South
TTITLE11=A Little Love
TTITLE12=Against the Undertow
EXTD=
EXTT0=
EXTT1=
EXTT2=
EXTT3=
EXTT4=
EXTT5=
EXTT6=
EXTT7=
EXTT8=
EXTT9=
EXTT10=
EXTT11=
EXTT12=
PLAYORDER=
